<mxfile host="app.diagrams.net" modified="2022-03-03T09:51:11.809Z" agent="5.0 (Windows NT 10.0; Win64; x64) AppleWebKit/537.36 (KHTML, like Gecko) Chrome/98.0.4758.102 Safari/537.36 Edg/98.0.1108.56" etag="OrJ2r9aJa_3g1tqT5ImX" version="16.6.5" type="github">
  <diagram id="jkhEtQwaUTcukI1ToZ59" name="Page-1">
    <mxGraphModel dx="782" dy="514" grid="1" gridSize="10" guides="1" tooltips="1" connect="1" arrows="1" fold="1" page="1" pageScale="1" pageWidth="827" pageHeight="1169" math="0" shadow="0">
      <root>
        <mxCell id="0" />
        <mxCell id="1" parent="0" />
        <mxCell id="DIU-cQyyI2o6AMHBCRW7-9" value="" style="rounded=0;whiteSpace=wrap;html=1;" vertex="1" parent="1">
          <mxGeometry x="50" y="220" width="680" height="90" as="geometry" />
        </mxCell>
        <mxCell id="DIU-cQyyI2o6AMHBCRW7-3" value="" style="edgeStyle=orthogonalEdgeStyle;rounded=0;orthogonalLoop=1;jettySize=auto;html=1;" edge="1" parent="1" source="DIU-cQyyI2o6AMHBCRW7-1" target="DIU-cQyyI2o6AMHBCRW7-2">
          <mxGeometry relative="1" as="geometry" />
        </mxCell>
        <mxCell id="DIU-cQyyI2o6AMHBCRW7-1" value="线程1&lt;br&gt;Thread" style="rounded=0;whiteSpace=wrap;html=1;" vertex="1" parent="1">
          <mxGeometry x="120" y="60" width="120" height="60" as="geometry" />
        </mxCell>
        <mxCell id="DIU-cQyyI2o6AMHBCRW7-5" value="" style="edgeStyle=orthogonalEdgeStyle;rounded=0;orthogonalLoop=1;jettySize=auto;html=1;" edge="1" parent="1" source="DIU-cQyyI2o6AMHBCRW7-2" target="DIU-cQyyI2o6AMHBCRW7-4">
          <mxGeometry relative="1" as="geometry" />
        </mxCell>
        <mxCell id="DIU-cQyyI2o6AMHBCRW7-2" value="Java虚拟机栈&lt;br&gt;Java stack" style="rounded=0;whiteSpace=wrap;html=1;" vertex="1" parent="1">
          <mxGeometry x="120" y="150" width="120" height="60" as="geometry" />
        </mxCell>
        <mxCell id="DIU-cQyyI2o6AMHBCRW7-10" style="edgeStyle=orthogonalEdgeStyle;rounded=0;orthogonalLoop=1;jettySize=auto;html=1;exitX=0.5;exitY=1;exitDx=0;exitDy=0;" edge="1" parent="1" source="DIU-cQyyI2o6AMHBCRW7-4">
          <mxGeometry relative="1" as="geometry">
            <mxPoint x="180" y="360" as="targetPoint" />
          </mxGeometry>
        </mxCell>
        <mxCell id="DIU-cQyyI2o6AMHBCRW7-4" value="栈帧&lt;br&gt;Stack Frame" style="whiteSpace=wrap;html=1;rounded=0;" vertex="1" parent="1">
          <mxGeometry x="120" y="240" width="120" height="60" as="geometry" />
        </mxCell>
        <mxCell id="DIU-cQyyI2o6AMHBCRW7-6" value="局部变量表&lt;br&gt;Local Variable Table" style="rounded=0;whiteSpace=wrap;html=1;" vertex="1" parent="1">
          <mxGeometry x="280" y="240" width="120" height="60" as="geometry" />
        </mxCell>
        <mxCell id="DIU-cQyyI2o6AMHBCRW7-7" value="动态链接&lt;br&gt;Dynamic Linking" style="rounded=0;whiteSpace=wrap;html=1;" vertex="1" parent="1">
          <mxGeometry x="420" y="240" width="120" height="60" as="geometry" />
        </mxCell>
        <mxCell id="DIU-cQyyI2o6AMHBCRW7-8" value="返回地址&lt;br&gt;Return Address" style="rounded=0;whiteSpace=wrap;html=1;" vertex="1" parent="1">
          <mxGeometry x="560" y="240" width="120" height="60" as="geometry" />
        </mxCell>
        <mxCell id="DIU-cQyyI2o6AMHBCRW7-13" value="" style="edgeStyle=orthogonalEdgeStyle;rounded=0;orthogonalLoop=1;jettySize=auto;html=1;" edge="1" parent="1" source="DIU-cQyyI2o6AMHBCRW7-11" target="DIU-cQyyI2o6AMHBCRW7-12">
          <mxGeometry relative="1" as="geometry" />
        </mxCell>
        <mxCell id="DIU-cQyyI2o6AMHBCRW7-11" value="操作数栈&lt;br&gt;Operand Stack" style="rounded=0;whiteSpace=wrap;html=1;" vertex="1" parent="1">
          <mxGeometry x="120" y="360" width="120" height="60" as="geometry" />
        </mxCell>
        <mxCell id="DIU-cQyyI2o6AMHBCRW7-12" value="操作数" style="whiteSpace=wrap;html=1;rounded=0;" vertex="1" parent="1">
          <mxGeometry x="120" y="440" width="120" height="60" as="geometry" />
        </mxCell>
        <mxCell id="DIU-cQyyI2o6AMHBCRW7-15" value="&lt;font style=&quot;font-size: 18px&quot;&gt;对应着某个写法&lt;/font&gt;" style="text;html=1;strokeColor=none;fillColor=none;align=center;verticalAlign=middle;whiteSpace=wrap;rounded=0;" vertex="1" parent="1">
          <mxGeometry x="380" y="180" width="190" height="25" as="geometry" />
        </mxCell>
        <mxCell id="DIU-cQyyI2o6AMHBCRW7-16" value="&lt;font style=&quot;font-size: 18px&quot;&gt;对应着某个字节码指令操作的操作数&lt;/font&gt;" style="text;html=1;strokeColor=none;fillColor=none;align=center;verticalAlign=middle;whiteSpace=wrap;rounded=0;" vertex="1" parent="1">
          <mxGeometry x="382" y="456" width="318" height="14" as="geometry" />
        </mxCell>
      </root>
    </mxGraphModel>
  </diagram>
</mxfile>
